<svg xmlns="http://www.w3.org/2000/svg" xmlns:xlink="http://www.w3.org/1999/xlink" width="256" height="256" preserveAspectRatio="xMidYMid meet" viewBox="0 0 256 256" style="-ms-transform: rotate(360deg); -webkit-transform: rotate(360deg); transform: rotate(360deg);"><path d="M224 76a48.054 48.054 0 0 1-48-48a8 8 0 0 0-8-8h-40a8 8 0 0 0-8 8v128a20 20 0 1 1-28.567-18.08A8 8 0 0 0 96 130.696v-41.64a8 8 0 0 0-9.402-7.875A76.005 76.005 0 1 0 176 156v-35.708A103.324 103.324 0 0 0 224 132a8 8 0 0 0 8-8V84a8 8 0 0 0-8-8zm-8 39.644a87.215 87.215 0 0 1-43.329-16.155A8 8 0 0 0 160 105.983V156a60 60 0 1 1-80-56.6v26.668A36 36 0 1 0 136 156V36h24.498A64.14 64.14 0 0 0 216 91.502z" fill="#374151"/><rect x="0" y="0" width="256" height="256" fill="rgba(0, 0, 0, 0)" /></svg>