<svg xmlns="http://www.w3.org/2000/svg" xmlns:xlink="http://www.w3.org/1999/xlink" width="256" height="256" preserveAspectRatio="xMidYMid meet" viewBox="0 0 256 256" style="-ms-transform: rotate(360deg); -webkit-transform: rotate(360deg); transform: rotate(360deg);"><path d="M71.999 248A7.999 7.999 0 0 1 64 240v-32H48a16.018 16.018 0 0 1-16-16V48a16.018 16.018 0 0 1 16-16h160a16.018 16.018 0 0 1 16 16v108.253a15.955 15.955 0 0 1-5.758 12.292l-42.895 35.746A16.029 16.029 0 0 1 165.104 208h-42.208l-45.775 38.146A7.998 7.998 0 0 1 72 248zM48 48v144h24a8 8 0 0 1 8 8v22.92l32.653-27.211A16.029 16.029 0 0 1 122.896 192h42.208L208 156.253V48z" fill="#374151"/><path d="M168 144a8 8 0 0 1-8-8V88a8 8 0 0 1 16 0v48a8 8 0 0 1-8 8z" fill="#374151"/><path d="M120 144a8 8 0 0 1-8-8V88a8 8 0 0 1 16 0v48a8 8 0 0 1-8 8z" fill="#374151"/><rect x="0" y="0" width="256" height="256" fill="rgba(0, 0, 0, 0)" /></svg>