<svg xmlns="http://www.w3.org/2000/svg" xmlns:xlink="http://www.w3.org/1999/xlink" width="256" height="256" preserveAspectRatio="xMidYMid meet" viewBox="0 0 256 256" style="-ms-transform: rotate(360deg); -webkit-transform: rotate(360deg); transform: rotate(360deg);"><path d="M164.438 121.344l-48-32A8 8 0 0 0 104 96v64a8 8 0 0 0 12.438 6.656l48-32a8 8 0 0 0 0-13.312zM120 145.052v-34.104L145.578 128zm114.33-75.255a23.964 23.964 0 0 0-14.504-16.346c-34.27-13.17-88.846-13.07-91.826-13.043c-2.979-.028-57.556-.126-91.825 13.043a23.967 23.967 0 0 0-14.506 16.346C19.083 79.727 16 97.887 16 128c0 30.114 3.083 48.272 5.67 58.203a23.965 23.965 0 0 0 14.504 16.346c32.806 12.607 84.222 13.045 91.167 13.045h1.318c6.95 0 58.362-.44 91.166-13.045a23.966 23.966 0 0 0 14.506-16.346c2.586-9.93 5.669-28.09 5.669-58.203c0-30.115-3.083-48.273-5.67-58.203zM218.848 182.17a7.931 7.931 0 0 1-4.761 5.443c-31.654 12.164-85.497 11.985-86.036 11.98h-.1c-.54.017-54.336.202-86.036-11.98a7.932 7.932 0 0 1-4.761-5.443C34.803 173.145 32 156.42 32 128s2.802-45.145 5.153-54.17a7.932 7.932 0 0 1 4.761-5.443c30.524-11.73 81.679-11.98 85.866-11.98h.27c.54-.015 54.383-.184 86.036 11.98a7.93 7.93 0 0 1 4.761 5.443C221.197 82.855 224 99.58 224 128s-2.802 45.145-5.153 54.17z" fill="#374151"/><rect x="0" y="0" width="256" height="256" fill="rgba(0, 0, 0, 0)" /></svg>